<svg width="118" height="73" viewBox="0 0 118 73" fill="none" xmlns="http://www.w3.org/2000/svg">
<g clip-path="url(#clip0_6_97)">
<path d="M20.5683 2.0822L21.4012 2.27533C21.8768 2.39724 22.1894 2.56019 22.3294 2.75936C22.4272 2.90058 22.5431 3.23736 22.5431 4.04609V26.4311C22.5431 28.343 22.8267 30.0619 23.3856 31.5369C23.9469 33.0192 24.7472 34.1949 25.7647 35.0278C26.7871 35.8655 27.9797 36.2915 29.3099 36.2915C31.3051 36.2915 32.9274 35.3766 34.1321 33.572C35.3259 31.7832 35.9318 29.3811 35.9318 26.4299V5.01536C35.9318 3.37617 36.3156 2.45397 37.0725 2.27533L37.3332 2.21497L37.5927 2.27533C38.0683 2.39724 38.3809 2.56019 38.5209 2.75936C38.6187 2.89938 38.7346 3.23736 38.7346 4.04609V32.5352C38.7346 33.3451 38.6187 33.6819 38.5209 33.8219C38.3809 34.0235 38.0683 34.1852 37.5951 34.3059L36.7514 34.5027C36.2903 34.6439 36.1925 34.9602 36.1925 35.2004C36.1925 35.6228 36.4291 35.8558 36.8588 35.8558H56.948C57.3813 35.8558 57.9112 35.6422 57.9776 34.6246L58.3397 26.0062C58.3735 25.6272 58.3192 25.3664 58.1743 25.2083C58.0778 25.1033 57.9462 25.049 57.782 25.049C57.537 25.049 57.222 25.1757 57.1169 25.7829L56.6812 28.6424C56.3481 30.8658 55.7554 32.3988 54.9201 33.1991C54.1271 33.9595 53.1662 34.3627 52.0642 34.3977C52.0038 34.4001 50.3031 34.4001 50.1908 34.4001C49.0465 34.4001 48.2535 34.1538 47.8322 33.6674C47.4061 33.1773 47.1901 32.3565 47.1901 31.2279V19.0668C47.1901 18.5743 47.3965 18.5103 47.5763 18.5103H49.3555C49.8794 18.5103 50.2705 18.6709 50.5517 19.0004C50.8378 19.3372 51.0659 20.0662 51.2325 21.1683L51.5958 23.5486C51.6622 23.8781 51.7757 24.093 51.9447 24.2052C52.063 24.2837 52.2018 24.3066 52.3623 24.274C52.6894 24.1944 52.8548 23.8781 52.8548 23.3313V12.4291C52.8548 11.8835 52.6894 11.5673 52.3575 11.4864C52.2006 11.455 52.0618 11.478 51.9435 11.5564C51.7757 11.6675 51.661 11.8823 51.5946 12.2179L51.2313 14.6393C50.9983 16.1022 50.396 16.8144 49.3918 16.8144H47.5763C47.3965 16.8144 47.1901 16.7516 47.1901 16.2579V4.57961C47.1901 3.68035 47.3675 3.05026 47.7163 2.70383C48.0664 2.35741 48.7158 2.18238 49.6452 2.18238C49.7334 2.18238 51.4607 2.18238 51.5162 2.1848C52.8464 2.22101 53.9086 2.71832 54.6739 3.66345C55.4778 4.65807 56.0185 6.25984 56.2817 8.42169L56.4989 10.2142C56.5689 10.8237 56.8804 10.9517 57.129 10.9517C57.1351 10.9517 57.1399 10.9505 57.1459 10.9505C57.152 10.9505 57.1568 10.9517 57.1628 10.9517C57.4103 10.9517 57.7217 10.8237 57.7929 10.2142L57.974 8.61602C58.2359 6.35882 58.8008 4.70152 59.6518 3.69C60.4955 2.68935 61.3549 2.18238 62.2095 2.18238C62.6272 2.18238 62.8988 2.26326 63.0195 2.425C63.1474 2.5964 63.2126 2.89817 63.2126 3.32064V32.3915C63.2126 33.0409 63.1342 33.4815 62.9809 33.7024C62.83 33.9173 62.5258 34.0718 62.0756 34.1623L60.4545 34.5003C60.0791 34.5389 59.8727 34.7888 59.8727 35.2028C59.8727 35.6168 60.1093 35.8582 60.539 35.8582H68.7084C69.1381 35.8582 69.3747 35.6253 69.3747 35.2028C69.3747 34.7803 69.1683 34.5389 68.8049 34.5015L67.1718 34.1623C66.7445 34.0718 66.4451 33.9173 66.2822 33.7C66.118 33.4803 66.0347 33.0409 66.0347 32.3927V3.31944C66.0347 2.89696 66.0999 2.5952 66.2279 2.42379C66.3329 2.28378 66.5562 2.2029 66.8905 2.186C66.9376 2.18359 66.9871 2.18238 67.0378 2.18238C67.9153 2.18238 68.788 2.68935 69.6318 3.69C70.4827 4.70031 71.0356 6.3564 71.2746 8.61602L71.4556 10.2154C71.5257 10.8249 71.8371 10.9529 72.0857 10.9529C72.2644 10.9529 72.408 10.8962 72.5106 10.7839C72.6567 10.6246 72.7122 10.3675 72.6796 10.0029L72.3525 1.23001C72.2994 0.415243 72.0374 0.0012207 71.5776 0.0012207C71.4074 0.0012207 71.2299 0.0664021 71.0525 0.194351C70.904 0.300572 70.6578 0.417657 70.3186 0.541985C69.983 0.665105 69.429 0.727872 68.6722 0.727872H32.5774C32.1477 0.727872 31.9111 0.977734 31.9111 1.43159C31.9111 1.78043 32.0813 2.00494 32.4084 2.08461L33.3849 2.27774C34.1417 2.45639 34.5256 3.39427 34.5256 5.06605V26.4818C34.5256 28.9019 34.1164 30.8042 33.3089 32.1356C32.5134 33.4465 31.3751 34.1116 29.9279 34.1116C28.4806 34.1116 27.3786 33.4465 26.5831 32.1356C25.7756 30.8055 25.3664 28.9031 25.3664 26.4818V4.09437C25.3664 3.44376 25.4448 2.99353 25.6006 2.75574C25.7502 2.5264 26.0544 2.36586 26.5022 2.27533L27.4872 2.08099C27.8095 2.00253 27.9797 1.77802 27.9797 1.42918C27.9797 0.97532 27.7431 0.725458 27.3134 0.725458H20.6685C20.2388 0.725458 20.0022 0.958421 20.0022 1.38089C20.0022 1.6211 20.0988 1.93735 20.5683 2.08099V2.0822ZM41.5567 4.04609C41.5567 3.39548 41.6291 2.96335 41.7704 2.75936C41.9092 2.55899 42.2218 2.39724 42.6962 2.27533L42.9629 2.21377L43.2273 2.27533C43.7029 2.39724 44.0155 2.56019 44.1555 2.75936C44.2533 2.90058 44.3692 3.23736 44.3692 4.04609V32.5352C44.3692 33.3451 44.2533 33.6819 44.1555 33.8219C44.0155 34.0235 43.7029 34.1852 43.2297 34.3059L42.9629 34.3675L42.6986 34.3059C42.2218 34.1852 41.9092 34.0223 41.7704 33.8207C41.6279 33.6179 41.5567 33.1846 41.5567 32.534V4.04609Z" fill="#BFFFD1"/>
<path d="M91.8889 54.4252C91.8889 50.9441 91.5086 47.8347 90.759 45.1864C90.0058 42.532 88.9219 40.4366 87.535 38.9591C86.1372 37.4708 84.4582 36.7164 82.545 36.7164H75.2097C75.1022 36.7164 75.0069 36.7599 74.9248 36.825C74.6122 37.0713 74.1945 37.1353 73.8457 36.9421C73.5898 36.8009 73.3098 36.679 73.008 36.5776C72.32 36.3483 71.5981 36.2324 70.863 36.2324C68.8991 36.2324 67.2612 36.9723 65.9962 38.4304C64.736 39.8837 64.0962 41.8428 64.0962 44.2521C64.0962 46.0723 64.5163 47.8105 65.3443 49.4195C66.1688 51.0237 67.4965 52.7052 69.2878 54.4168C70.892 56.0149 72.0737 57.6493 72.8028 59.274C73.5306 60.8975 73.9 62.6743 73.9 64.5537C73.9 66.4331 73.5463 68.0083 72.8499 69.0657C72.163 70.1062 71.2264 70.6337 70.0652 70.6337C67.8925 70.6337 66.3812 68.3366 65.5737 63.8053L65.2466 61.9657C65.2067 61.7243 65.0836 60.9916 64.5815 60.9916C64.4282 60.9916 64.3063 61.0484 64.2121 61.1582C64.0069 61.2137 63.7957 61.3936 63.7136 61.8692L63.2779 64.7275C62.9447 66.9509 62.352 68.4839 61.5168 69.2842C60.7237 70.0446 59.7629 70.4478 58.6608 70.4828C58.6005 70.4852 56.8756 70.4852 56.7875 70.4852C55.6432 70.4852 54.8502 70.2389 54.4289 69.7513C54.0028 69.2612 53.7867 68.4404 53.7867 67.3118V55.1507C53.7867 54.6582 53.9931 54.5942 54.173 54.5942H55.9522C56.4761 54.5942 56.8672 54.7547 57.1484 55.0843C57.4345 55.421 57.6626 56.1501 57.8292 57.2522L58.1925 59.6313C58.2589 59.9608 58.3724 60.1757 58.5413 60.2879C58.6584 60.3664 58.7985 60.3893 58.959 60.3567C59.2861 60.2771 59.4515 59.9608 59.4515 59.414V48.513C59.4515 47.9674 59.2861 47.6512 58.9542 47.5691C58.7972 47.5377 58.6584 47.5607 58.5401 47.6391C58.3724 47.7502 58.2577 47.965 58.1913 48.3006L57.828 50.722C57.595 52.1849 56.9927 52.8959 55.9884 52.8959H54.173C53.9931 52.8959 53.7867 52.8331 53.7867 52.3394V40.6623C53.7867 39.7642 53.9642 39.1329 54.313 38.7865C54.6631 38.4401 55.3125 38.2651 56.2419 38.2651C56.2974 38.2651 57.0808 38.2651 57.1351 38.2675C58.4653 38.3037 59.5275 38.801 60.2928 39.7461C61.0967 40.7408 61.6375 42.3425 61.9006 44.5044L62.1179 46.2969C62.1879 46.9064 62.4993 47.0344 62.748 47.0344C62.9278 47.0344 63.0702 46.9776 63.1728 46.8654C63.3189 46.7061 63.3744 46.449 63.3418 46.0844L63.0509 38.0381C62.9845 37.023 62.4534 36.8094 62.0213 36.8094L45.2673 36.714C44.8376 36.714 44.601 36.9639 44.601 37.4177C44.601 37.7665 44.7712 37.9911 45.0995 38.0707L46.076 38.2639C46.8328 38.4425 47.2167 39.3804 47.2167 41.0522V62.4679C47.2167 64.888 46.8075 66.7904 46 68.1218C45.2045 69.4326 44.0663 70.0977 42.619 70.0977C41.1717 70.0977 40.0697 69.4326 39.2742 68.1218C38.4667 66.7916 38.0575 64.8893 38.0575 62.4679V40.0829C38.0575 39.4323 38.136 38.9821 38.2917 38.7443C38.4413 38.5149 38.7455 38.3544 39.1933 38.2639L40.1783 38.0695C40.5006 37.9911 40.6708 37.7665 40.6708 37.4177C40.6708 36.9639 40.4342 36.714 40.0045 36.714H21.5388C20.7808 36.714 20.228 36.6512 19.8924 36.5281C19.8465 36.5112 19.7995 36.4919 19.7524 36.4726C19.4434 36.341 19.1839 36.1068 19.0366 35.8051C19.0197 35.7689 19.0016 35.7399 18.9871 35.7206C18.9002 35.6144 18.7626 35.56 18.5779 35.56C18.3727 35.56 18.0987 35.6397 17.9563 36.0187C17.5797 36.988 17.1294 37.6652 16.6189 38.0309C16.1095 38.3954 15.5108 38.5801 14.8384 38.5801C14.2301 38.5801 13.6555 38.4558 13.1292 38.2108C12.7852 38.0502 11.3706 37.0689 10.3373 36.3519C9.76033 35.9511 9.26182 35.6059 9.06869 35.484C8.51827 35.1388 7.90508 34.8527 7.24361 34.6354C7.04444 34.5715 6.97926 34.5099 6.95633 34.4737C7.09755 34.3361 7.77954 33.9607 8.00889 33.8762L8.03061 33.8629C8.44343 33.6227 9.01678 33.7048 9.30889 34.0452C9.5672 34.3469 9.83759 34.627 10.114 34.8781C11.1497 35.8147 12.2759 36.2903 13.4636 36.2903C14.6514 36.2903 15.7727 35.8147 16.7963 34.8768C17.8078 33.9498 18.7143 32.6571 19.4929 31.036C20.2678 29.4197 20.8762 27.4945 21.2999 25.3133C21.7223 23.1333 21.9372 20.7542 21.9372 18.2399C21.9372 15.7256 21.7223 13.3549 21.2999 11.1907C20.8762 9.0264 20.2678 7.10113 19.4929 5.46918C18.7143 3.8312 17.8066 2.53844 16.7951 1.6271C15.7715 0.706116 14.6501 0.238983 13.4636 0.238983C12.2771 0.238983 11.1497 0.706116 10.1152 1.6259C9.09042 2.53723 8.1827 3.82999 7.41743 5.46918C6.65336 7.10234 6.05224 9.0276 5.62856 11.1907C5.20609 13.3513 4.99123 15.7232 4.99123 18.2399C4.99123 20.7566 5.20609 23.1357 5.62856 25.3133C6.05224 27.4932 6.65336 29.4185 7.42588 31.0541C7.57434 31.3691 7.57072 31.7349 7.41501 32.1127C7.16636 32.7162 6.56041 33.2654 5.86997 33.5141L3.07804 34.6016C2.02668 34.8189 1.24813 35.0965 0.764098 35.4261C0.259546 35.7713 0.00244141 36.1358 0.00244141 36.5088C0.00244141 36.8818 0.175051 37.3055 0.995854 37.3055C1.42798 37.3055 1.81666 37.2004 2.14981 36.994C2.46968 36.7949 2.77506 36.5643 3.05752 36.306C3.3279 36.0586 3.62725 35.8365 3.94591 35.6469C4.2513 35.4635 4.60376 35.3705 4.99123 35.3705C5.35093 35.3705 5.65029 35.4852 5.90739 35.7194C6.17898 35.9668 6.45419 36.277 6.72699 36.6404C6.90684 36.8806 7.58279 37.4624 8.17908 37.9742C8.5243 38.2711 8.85021 38.5511 8.9854 38.6851C9.362 39.0605 10.9626 40.276 11.4985 40.538C12.0332 40.7999 12.7176 40.9315 13.5312 40.9315C14.8614 40.9315 16.0431 40.4969 17.0413 39.6411L17.0498 39.6339C17.3334 39.39 17.7704 39.6013 17.7559 39.9743L17.5326 45.9794C17.5 46.3488 17.5543 46.6071 17.7004 46.7664C17.803 46.8787 17.9466 46.9366 18.1265 46.9366C18.3739 46.9366 18.6854 46.8087 18.7566 46.1991L18.9376 44.6009C19.1996 42.3437 19.7645 40.6864 20.6154 39.6749C21.4592 38.6743 22.3198 38.1673 23.1732 38.1673C23.5909 38.1673 23.8636 38.2482 23.9831 38.4087C24.1111 38.5801 24.1763 38.8819 24.1763 39.3043V68.3752C24.1763 69.0246 24.0978 69.4652 23.9445 69.6861C23.7948 69.901 23.4895 70.0555 23.0392 70.146L21.4181 70.4828C21.1526 70.5105 20.8363 70.6542 20.8363 71.1853C20.8363 71.6078 21.0729 71.8407 21.5026 71.8407H29.672C30.1017 71.8407 30.3383 71.6078 30.3383 71.1853C30.3383 70.7628 30.1319 70.5214 29.7686 70.484L28.1342 70.1448C27.7069 70.0543 27.4076 69.8998 27.2446 69.6825C27.0805 69.4628 26.9972 69.0234 26.9972 68.3752V39.3043C26.9972 38.8819 27.0624 38.5801 27.1903 38.4087C27.311 38.2482 27.5826 38.1673 28.0003 38.1673C28.8778 38.1673 29.7505 38.6743 30.5942 39.6749C31.4452 40.684 31.998 42.3413 32.2358 44.6009L32.4181 46.2003C32.4881 46.8099 32.7995 46.9378 33.0482 46.9378C33.228 46.9378 33.3705 46.8811 33.4731 46.7688C33.6191 46.6095 33.6747 46.3524 33.6421 45.9879L33.3475 38.0888L34.0911 38.2614C34.5667 38.3822 34.8793 38.5451 35.0193 38.7455C35.1171 38.8867 35.2342 39.2235 35.2342 40.0322V62.4172C35.2342 64.3304 35.5178 66.048 36.0767 67.5231C36.638 69.0053 37.4383 70.181 38.4558 71.0139C39.4782 71.8516 40.6708 72.2777 42.001 72.2777C43.9962 72.2777 45.6185 71.3627 46.8232 69.5582C48.017 67.7693 48.6229 65.3672 48.6229 62.4172V41.0015C48.6229 39.4709 48.9573 38.5668 49.6163 38.3085L49.8227 38.3568C50.2983 38.4787 50.6109 38.6417 50.751 38.8408C50.8487 38.9821 50.9658 39.3188 50.9658 40.1276V68.6167C50.9658 69.4266 50.8499 69.7634 50.7522 69.9034C50.6122 70.105 50.2995 70.2667 49.8264 70.3874L48.9826 70.5842C48.5215 70.7266 48.425 71.0416 48.425 71.2818C48.425 71.7043 48.6615 71.9373 49.0913 71.9373H63.5458C63.7076 71.9373 63.9212 71.7876 64.1228 71.6053C64.5127 71.2517 65.0848 71.1756 65.5568 71.4074C65.6992 71.4774 65.8429 71.5426 65.9756 71.5921C66.4971 71.7864 67.0644 71.9506 67.6619 72.0809C68.263 72.2113 68.8147 72.2777 69.3035 72.2777C70.6784 72.2777 71.918 71.8866 72.9875 71.1153C74.0533 70.3476 74.9031 69.2636 75.5151 67.8924C76.1246 66.526 76.4336 64.911 76.4336 63.0943C76.4336 61.0194 76.0087 59.0386 75.1698 57.2051C74.3333 55.3776 72.9887 53.4511 71.172 51.4788C69.493 49.6863 68.3017 48.1473 67.6317 46.9016C66.9666 45.6668 66.6299 44.3487 66.6299 42.9871C66.6299 41.372 66.9341 40.1082 67.5352 39.2283C68.1339 38.3508 68.9148 37.9247 69.9215 37.9247C70.9282 37.9247 71.7116 38.4654 72.2632 39.5771C72.8245 40.7106 73.3773 42.5344 73.9048 44.9981L74.1595 46.2099C74.2694 46.7242 74.4685 46.9849 74.751 46.9849C75.0334 46.9849 75.3449 46.8207 75.3449 46.0373L75.2362 38.7225V38.7141C75.235 38.3978 75.5295 38.1625 75.8373 38.2337L75.9448 38.259C76.4216 38.3797 76.733 38.5427 76.873 38.7431C76.9708 38.8843 77.0879 39.2211 77.0879 40.0298V68.5189C77.0879 69.5292 76.7149 70.1086 75.9472 70.2896L75.1034 70.4852C74.6423 70.6276 74.5458 70.9439 74.5458 71.1829C74.5458 71.6053 74.7824 71.8383 75.2121 71.8383H82.1841C84.1697 71.8383 85.9091 71.1092 87.3539 69.6716C88.7903 68.2425 89.9177 66.2037 90.7071 63.6122C91.4941 61.0279 91.8925 57.9342 91.8925 54.4192L91.8889 54.4252ZM9.56358 5.80837C10.5196 3.14559 11.8317 1.79489 13.4612 1.79489C15.0907 1.79489 16.4318 3.14438 17.3757 5.80716C18.3353 8.51219 18.8217 12.6959 18.8217 18.2423C18.8217 23.7888 18.3353 27.9821 17.3757 30.7016C16.4306 33.3801 15.1137 34.738 13.4612 34.738C11.8087 34.738 10.5208 33.3801 9.56358 30.7004C8.59311 27.9821 8.10062 23.79 8.10062 18.2411C8.10062 12.6922 8.59311 8.50977 9.56358 5.80595V5.80837ZM87.133 66.2979C86.0334 68.98 84.4159 70.3403 82.3265 70.3403C81.4755 70.3403 80.8551 70.0881 80.4821 69.5895C80.1007 69.0802 79.9076 68.1845 79.9076 66.9256V41.634C79.9076 39.3357 80.7706 38.2192 82.545 38.2192C84.5849 38.2192 86.1529 39.6351 87.2055 42.4282C88.2725 45.26 88.8133 49.2964 88.8133 54.4252C88.8133 59.554 88.2484 63.5796 87.1342 66.2979H87.133Z" fill="#BFFFD1"/>
<path d="M117.334 36.7152H112.177C111.77 36.7152 111.547 36.9482 111.547 37.3707C111.547 37.6133 111.67 37.9319 112.264 38.072L113.064 38.2168C113.576 38.3061 113.895 38.5874 114.04 39.0762C114.188 39.5808 114.11 40.2471 113.805 41.0594L109.523 52.7305C109.372 53.0842 109.168 53.0733 109.024 52.7378L104.558 40.0431C104.329 39.4009 104.29 38.929 104.442 38.6393C104.592 38.3544 104.845 38.2011 105.223 38.1709L105.905 38.0744C106.509 38.0273 106.635 37.6664 106.635 37.3719C106.635 36.9494 106.411 36.7164 106.005 36.7164H99.7962C99.3665 36.7164 99.1299 36.9313 99.1299 37.3224C99.1299 37.7135 99.3363 37.9585 99.7262 38.0695L100.051 38.1661C100.436 38.288 100.733 38.4848 100.934 38.7527C101.142 39.0304 101.332 39.442 101.498 39.9803L106.836 54.9032C107.072 55.5671 107.192 56.2539 107.192 56.9456V68.3801C107.192 69.0295 107.113 69.4701 106.96 69.6909C106.809 69.9058 106.505 70.0603 106.055 70.1508L105.305 70.3066C104.932 70.1798 104.655 69.9746 104.47 69.6728C104.26 69.3312 104.07 68.7096 103.905 67.8248L98.1691 37.1111C98.1147 36.7551 98.0254 36.5257 97.8938 36.4086C97.6512 36.1926 97.3639 36.1527 97.0779 36.4086C96.9451 36.5269 96.8546 36.7563 96.8027 37.1075L91.1741 67.3891C91.0076 68.2787 90.8036 68.9764 90.567 69.4664C90.3388 69.9384 90.0081 70.2257 89.5567 70.3464L89.0099 70.4924C88.62 70.6047 88.4136 70.863 88.4136 71.2396C88.4136 71.6162 88.6502 71.8456 89.0799 71.8456H94.1628C94.5696 71.8456 94.7929 71.6126 94.7929 71.1901C94.7929 70.9475 94.6698 70.6288 94.0747 70.4888L93.5303 70.3923C93.1561 70.3259 92.8833 70.1605 92.6974 69.8877C92.3715 69.4121 92.3184 68.6034 92.5393 67.482L93.7741 60.9904C93.9311 60.2083 94.2847 59.828 94.852 59.828H98.6652C99.2554 59.828 99.6079 60.2071 99.7431 60.988L101.123 68.496C101.24 69.1816 101.248 69.6656 101.147 69.9348C101.054 70.1834 100.829 70.3331 100.464 70.3898L99.7817 70.4864C99.1782 70.5347 99.0514 70.8956 99.0514 71.1889C99.0514 71.6114 99.2759 71.8444 99.6815 71.8444H112.688C113.117 71.8444 113.354 71.6114 113.354 71.1889C113.354 70.7664 113.147 70.525 112.784 70.4876L111.151 70.1484C110.724 70.0579 110.424 69.9034 110.261 69.6861C110.097 69.4664 110.014 69.0271 110.014 68.3789V56.5569C110.014 56.0499 110.05 55.5925 110.121 55.1978C110.193 54.803 110.313 54.3782 110.479 53.9352L115.235 41.1934C115.641 40.1397 115.974 39.3792 116.226 38.9326C116.462 38.5113 116.737 38.2542 117.04 38.1673L117.405 38.0695C117.795 37.9573 118.001 37.699 118.001 37.3224C118.001 36.9458 117.765 36.7164 117.335 36.7164L117.334 36.7152ZM99.0055 58.0331C98.9476 58.0995 98.8595 58.1309 98.7364 58.1309H94.7422C94.6179 58.1309 94.5298 58.0995 94.473 58.0331C94.3825 57.9305 94.3547 57.7266 94.3909 57.4513L96.7942 44.6251L99.0888 57.4441C99.1263 57.7253 99.0985 57.9281 99.008 58.0319L99.0055 58.0331Z" fill="#BFFFD1"/>
<path d="M74.1836 22.6252C74.1836 25.4485 75.1094 28.0606 76.6713 30.1729C77.0853 30.733 77.0346 31.5104 76.5422 32.0028L75.6731 32.8719C75.4377 33.1073 75.3677 33.4791 75.5451 33.7603C75.6852 33.9812 75.9133 34.0923 76.1402 34.0923C76.3189 34.0923 76.4987 34.0235 76.6351 33.8871L77.5308 32.9914C78.0232 32.4989 78.8006 32.447 79.3607 32.8623C81.4742 34.4254 84.0851 35.35 86.9084 35.35C89.7317 35.35 92.3438 34.4242 94.4562 32.8623C95.0163 32.4482 95.7936 32.4989 96.2861 32.9914L97.2904 33.9957C97.4268 34.1321 97.6054 34.2009 97.7853 34.2009C98.0134 34.2009 98.2403 34.0899 98.3803 33.869C98.5578 33.5889 98.4878 33.2159 98.2524 32.9806L97.2735 32.0016C96.7822 31.5104 96.7267 30.7354 97.1395 30.1778C98.8861 27.8192 99.8385 24.8389 99.5946 21.6342C99.1227 15.4214 94.1073 10.4073 87.8958 9.93533C84.691 9.6915 81.712 10.6439 79.3534 12.3905C78.7957 12.8033 78.0208 12.7478 77.5295 12.2565L76.5482 11.2752C76.3177 11.0446 75.9519 10.9734 75.6731 11.1436C75.2687 11.3923 75.2229 11.927 75.5355 12.2396L76.5397 13.2439C77.0322 13.7364 77.0841 14.5137 76.6689 15.0738C75.107 17.1874 74.1812 19.7982 74.1812 22.6216L74.1836 22.6252ZM80.756 13.122C82.8008 11.793 85.2982 11.1038 87.9646 11.3464C93.3553 11.8377 97.6984 16.1807 98.1884 21.5714C98.431 24.2366 97.7418 26.734 96.4128 28.7788C95.9324 29.5175 94.8823 29.6092 94.2582 28.9864L93.4398 28.168C93.2093 27.9375 92.8435 27.8662 92.5647 28.0364C92.1603 28.2851 92.1145 28.8198 92.4271 29.1324L93.2684 29.9738C93.8937 30.599 93.7971 31.6516 93.0548 32.1332C91.2828 33.2835 89.1729 33.9522 86.9084 33.9522C84.644 33.9522 82.5328 33.2835 80.7621 32.1332C80.0197 31.6516 79.9231 30.6002 80.5484 29.9738L84.8866 25.6356C86.0031 24.5191 87.8125 24.5191 88.929 25.6356L90.0492 26.7557C90.1856 26.8921 90.3642 26.9609 90.5441 26.9609C90.7722 26.9609 90.9992 26.8499 91.1392 26.629C91.3166 26.349 91.2466 25.976 91.0124 25.7406L87.4033 22.1315L80.5484 15.2766C79.9244 14.6525 80.0161 13.6036 80.756 13.122ZM77.4016 16.4788C77.8832 15.7365 78.9346 15.6399 79.561 16.2652L83.8992 20.6033C85.0157 21.7199 85.0157 23.5293 83.8992 24.6458L79.561 28.984C78.9358 29.6092 77.8844 29.5127 77.4016 28.7703C76.2513 26.9984 75.5826 24.8884 75.5826 22.624C75.5826 20.3595 76.2513 18.2484 77.4016 16.4776V16.4788Z" fill="#BFFFD1"/>
</g>
<defs>
<clipPath id="clip0_6_97">
<rect width="118" height="72.2801" fill="white"/>
</clipPath>
</defs>
</svg>
